<svg width="331" height="78" viewBox="0 0 331 78" fill="none" xmlns="http://www.w3.org/2000/svg">
<path d="M0.966797 61V56.8105H8.08594V21.0977H0.966797V16.9082H14.209C17.373 16.9082 20.3027 17.1035 22.998 17.4941C25.7129 17.8848 28.3594 18.5977 30.9375 19.6328C33.5156 20.6484 35.7031 21.9668 37.5 23.5879C39.3164 25.1895 40.7715 27.2695 41.8652 29.8281C42.959 32.4258 43.5059 35.375 43.5059 38.6758C43.5059 41.8008 43.0566 44.6133 42.1582 47.1133C41.2598 49.5938 40 51.6934 38.3789 53.4121C36.7383 55.1309 34.7363 56.5664 32.373 57.7188C30.0293 58.8516 27.4414 59.6816 24.6094 60.209C21.7773 60.7363 18.6719 61 15.293 61H0.966797ZM15 56.8105C17.4609 56.8105 19.6875 56.6348 21.6797 56.2832C23.6914 55.9316 25.6055 55.3359 27.4219 54.4961C29.2383 53.6367 30.7617 52.5332 31.9922 51.1855C33.2227 49.8379 34.1992 48.1094 34.9219 46C35.6445 43.9102 36.0059 41.4688 36.0059 38.6758C36.0059 36.6055 35.8008 34.7207 35.3906 33.0215C35 31.3223 34.4629 29.877 33.7793 28.6855C33.0762 27.4746 32.1973 26.4199 31.1426 25.5215C30.1074 24.623 29.0137 23.9004 27.8613 23.3535C26.6895 22.8066 25.3711 22.3672 23.9062 22.0352C22.4414 21.7031 21.0059 21.4688 19.5996 21.332C18.1934 21.2148 16.6602 21.1562 15 21.1562V56.8105ZM63.3984 61.791C61.0156 61.791 58.8379 61.3418 56.8652 60.4434C54.9121 59.5254 53.3008 58.3047 52.0312 56.7812C49.4141 53.6172 48.1055 49.916 48.1055 45.6777C48.1055 43.9199 48.3105 42.2109 48.7207 40.5508C49.1309 38.8906 49.7559 37.3477 50.5957 35.9219C51.4355 34.4961 52.4414 33.2461 53.6133 32.1719C54.7852 31.0781 56.1816 30.2285 57.8027 29.623C59.3848 29.0176 61.1328 28.7148 63.0469 28.7148C67.1289 28.7148 70.4883 30.082 73.125 32.8164C74.4141 34.1641 75.4395 35.873 76.2012 37.9434C76.9629 39.9941 77.3633 42.2988 77.4023 44.8574H54.8145V45.0918C54.8145 48.4902 55.5371 51.3516 56.9824 53.6758C57.7051 54.8281 58.6621 55.7363 59.8535 56.4004C61.0645 57.0645 62.4512 57.3965 64.0137 57.3965C66.0449 57.3965 67.9492 56.7617 69.7266 55.4922C71.5234 54.2227 72.7344 52.4355 73.3594 50.1309L76.7871 51.2148C76.0254 54.4375 74.4727 57.0059 72.1289 58.9199C69.7852 60.834 66.875 61.791 63.3984 61.791ZM55.0195 41.6934H70.957C70.8789 38.8613 70.0977 36.5762 68.6133 34.8379C67.1484 33.0801 65.3516 32.2012 63.2227 32.2012C61.0742 32.2012 59.2285 33.0801 57.6855 34.8379C56.1426 36.5762 55.2539 38.8613 55.0195 41.6934ZM97.1777 62.1426C96.084 62.1426 95.1758 61.791 94.4531 61.0879C93.75 60.4043 93.1152 59.3105 92.5488 57.8066L83.3789 32.8457H77.9883V29.5645H95.6836V32.8457H90.3516L98.0859 56.3711L105.586 32.8457H100.605V29.5645H115.605V32.8457H110.566L101.924 57.6309C101.377 59.2324 100.732 60.3848 99.9902 61.0879C99.248 61.791 98.3105 62.1426 97.1777 62.1426ZM138.486 61.791C135.459 61.791 132.637 61.166 130.02 59.916C127.402 58.666 125.195 56.9863 123.398 54.877C121.602 52.7676 120.195 50.2969 119.18 47.4648C118.164 44.6133 117.656 41.625 117.656 38.5C117.656 35.2773 118.174 32.2793 119.209 29.5059C120.244 26.7324 121.689 24.3496 123.545 22.3574C125.4 20.3848 127.666 18.832 130.342 17.6992C133.037 16.5664 135.967 16 139.131 16C141.807 16 144.375 16.5664 146.836 17.6992C149.297 18.8125 151.328 20.4238 152.93 22.5332C154.531 24.623 155.332 26.9668 155.332 29.5645C155.332 30.8926 154.805 32.1133 153.75 33.2266C152.715 34.3398 151.328 34.8965 149.59 34.8965C148.105 34.8965 146.904 34.4668 145.986 33.6074C145.068 32.7285 144.609 31.5371 144.609 30.0332C144.609 29.0176 144.883 28.168 145.43 27.4844C145.977 26.7812 146.65 26.2539 147.451 25.9023C148.252 25.5312 149.043 25.3457 149.824 25.3457C148.867 23.8809 147.451 22.6406 145.576 21.625C143.701 20.6094 141.533 20.1016 139.072 20.1016C136.416 20.1016 134.053 20.8633 131.982 22.3867C129.932 23.9102 128.32 26.0586 127.148 28.832C125.977 31.6055 125.391 34.8672 125.391 38.6172C125.391 40.7656 125.732 42.8848 126.416 44.9746C127.1 47.0645 128.057 48.959 129.287 50.6582C130.518 52.377 132.09 53.7637 134.004 54.8184C135.938 55.8535 138.047 56.3711 140.332 56.3711C142.051 56.3711 143.662 56.0488 145.166 55.4043C146.689 54.7598 147.969 53.9102 149.004 52.8555C151.074 50.7852 152.461 48.4023 153.164 45.707L157.09 47.6113C156.055 52.123 153.955 55.6191 150.791 58.0996C147.627 60.5605 143.525 61.791 138.486 61.791ZM175.137 61.791C172.012 61.791 169.297 61.0781 166.992 59.6523C164.707 58.2266 162.93 56.2734 161.66 53.793C160.41 51.293 159.785 48.4512 159.785 45.2676C159.785 42.084 160.4 39.252 161.631 36.7715C162.861 34.2715 164.619 32.3086 166.904 30.8828C169.209 29.4375 171.934 28.7148 175.078 28.7148C178.242 28.7148 180.957 29.4375 183.223 30.8828C185.508 32.3086 187.256 34.2715 188.467 36.7715C189.697 39.252 190.312 42.084 190.312 45.2676C190.312 48.4121 189.697 51.2344 188.467 53.7344C187.256 56.2344 185.518 58.207 183.252 59.6523C180.986 61.0781 178.281 61.791 175.137 61.791ZM175.137 58.0703C177.754 58.0703 179.814 56.9375 181.318 54.6719C182.842 52.3867 183.604 49.3789 183.604 45.6484C183.604 43.3438 183.34 41.166 182.812 39.1152C182.285 37.0645 181.396 35.4043 180.146 34.1348C178.916 32.8457 177.227 32.2012 175.078 32.2012C172.891 32.2012 171.172 32.8652 169.922 34.1934C168.672 35.5215 167.783 37.2109 167.256 39.2617C166.748 41.3125 166.494 43.4414 166.494 45.6484C166.494 49.3984 167.266 52.4062 168.809 54.6719C170.352 56.9375 172.461 58.0703 175.137 58.0703ZM193.916 61V57.7188H199.629V32.8457H193.916V29.5645L205.02 29.0664L205.752 35.4531C206.709 33.2656 208.174 31.5957 210.146 30.4434C212.139 29.291 214.15 28.7148 216.182 28.7148C218.623 28.7148 220.547 29.2324 221.953 30.2676C223.379 31.2832 224.395 32.6504 225 34.3691C225.605 36.0879 225.908 38.002 225.908 40.1113V57.7188H231.914V61H214.248V57.7188H219.609V40.1699C219.609 37.6309 219.111 35.7559 218.115 34.5449C217.119 33.334 215.752 32.7285 214.014 32.7285C211.982 32.7285 210.371 33.3145 209.18 34.4863C208.008 35.6387 207.168 37.0742 206.66 38.793C206.172 40.4922 205.928 42.1719 205.928 43.832V57.7188H211.26V61H193.916ZM233.76 61V57.7188H239.473V32.8457H233.76V29.5645L244.863 29.0664L245.596 35.4531C246.553 33.2656 248.018 31.5957 249.99 30.4434C251.982 29.291 253.994 28.7148 256.025 28.7148C258.467 28.7148 260.391 29.2324 261.797 30.2676C263.223 31.2832 264.238 32.6504 264.844 34.3691C265.449 36.0879 265.752 38.002 265.752 40.1113V57.7188H271.758V61H254.092V57.7188H259.453V40.1699C259.453 37.6309 258.955 35.7559 257.959 34.5449C256.963 33.334 255.596 32.7285 253.857 32.7285C251.826 32.7285 250.215 33.3145 249.023 34.4863C247.852 35.6387 247.012 37.0742 246.504 38.793C246.016 40.4922 245.771 42.1719 245.771 43.832V57.7188H251.104V61H233.76ZM288.164 61.791C285.781 61.791 283.604 61.3418 281.631 60.4434C279.678 59.5254 278.066 58.3047 276.797 56.7812C274.18 53.6172 272.871 49.916 272.871 45.6777C272.871 43.9199 273.076 42.2109 273.486 40.5508C273.896 38.8906 274.521 37.3477 275.361 35.9219C276.201 34.4961 277.207 33.2461 278.379 32.1719C279.551 31.0781 280.947 30.2285 282.568 29.623C284.15 29.0176 285.898 28.7148 287.812 28.7148C291.895 28.7148 295.254 30.082 297.891 32.8164C299.18 34.1641 300.205 35.873 300.967 37.9434C301.729 39.9941 302.129 42.2988 302.168 44.8574H279.58V45.0918C279.58 48.4902 280.303 51.3516 281.748 53.6758C282.471 54.8281 283.428 55.7363 284.619 56.4004C285.83 57.0645 287.217 57.3965 288.779 57.3965C290.811 57.3965 292.715 56.7617 294.492 55.4922C296.289 54.2227 297.5 52.4355 298.125 50.1309L301.553 51.2148C300.791 54.4375 299.238 57.0059 296.895 58.9199C294.551 60.834 291.641 61.791 288.164 61.791ZM279.785 41.6934H295.723C295.645 38.8613 294.863 36.5762 293.379 34.8379C291.914 33.0801 290.117 32.2012 287.988 32.2012C285.84 32.2012 283.994 33.0801 282.451 34.8379C280.908 36.5762 280.02 38.8613 279.785 41.6934ZM319.277 61.791C317.617 61.791 316.064 61.4395 314.619 60.7363C313.174 60.0332 312.002 58.9883 311.104 57.6016C310.225 56.1953 309.785 54.4473 309.785 52.3574V32.8457H303.809V31.4688C305.312 31.0195 306.68 30.2187 307.91 29.0664C309.141 27.8945 310.117 26.6348 310.84 25.2871C311.445 24.1934 311.885 23.334 312.158 22.709C312.432 22.0645 312.705 21.4199 312.979 20.7754C313.252 20.1309 313.672 19.2617 314.238 18.168C314.648 17.3281 315.01 16.9082 315.322 16.9082C315.83 16.9082 316.084 17.25 316.084 17.9336V29.5645H327.627V32.9043H316.084V52.5332C316.084 54.252 316.475 55.541 317.256 56.4004C318.037 57.2598 319.072 57.6895 320.361 57.6895C321.924 57.6895 323.105 57.1816 323.906 56.166C324.707 55.1309 325.107 53.3242 325.107 50.7461V46.5273H328.623V50.1309C328.623 53.998 327.93 56.9082 326.543 58.8613C325.176 60.8145 322.754 61.791 319.277 61.791Z" fill="#DF57BC"/>
</svg>
