<svg width="331" height="78" viewBox="0 0 331 78" fill="none" xmlns="http://www.w3.org/2000/svg">
<path d="M0.805664 51V47.5088H6.73828V17.748H0.805664V14.2568H11.8408C14.4775 14.2568 16.9189 14.4196 19.165 14.7451C21.4274 15.0706 23.6328 15.6647 25.7812 16.5273C27.9297 17.3737 29.7526 18.4723 31.25 19.8232C32.7637 21.1579 33.9762 22.8913 34.8877 25.0234C35.7992 27.1882 36.2549 29.6458 36.2549 32.3965C36.2549 35.0007 35.8805 37.3444 35.1318 39.4277C34.3831 41.4948 33.3333 43.2445 31.9824 44.6768C30.6152 46.109 28.9469 47.3053 26.9775 48.2656C25.0244 49.2096 22.8678 49.9014 20.5078 50.3408C18.1478 50.7803 15.5599 51 12.7441 51H0.805664ZM12.5 47.5088C14.5508 47.5088 16.4062 47.3623 18.0664 47.0693C19.7428 46.7764 21.3379 46.2799 22.8516 45.5801C24.3652 44.8639 25.6348 43.9443 26.6602 42.8213C27.6855 41.6982 28.4993 40.2578 29.1016 38.5C29.7038 36.7585 30.0049 34.724 30.0049 32.3965C30.0049 30.6712 29.834 29.1006 29.4922 27.6846C29.1667 26.2686 28.7191 25.0641 28.1494 24.0713C27.5635 23.0622 26.8311 22.1833 25.9521 21.4346C25.0895 20.6859 24.1781 20.0837 23.2178 19.6279C22.2412 19.1722 21.1426 18.806 19.9219 18.5293C18.7012 18.2526 17.5049 18.0573 16.333 17.9434C15.1611 17.8457 13.8835 17.7969 12.5 17.7969V47.5088ZM52.832 51.6592C50.8464 51.6592 49.0316 51.2848 47.3877 50.5361C45.7601 49.7712 44.4173 48.7539 43.3594 47.4844C41.1784 44.8477 40.0879 41.7633 40.0879 38.2314C40.0879 36.7666 40.2588 35.3424 40.6006 33.959C40.9424 32.5755 41.4632 31.2897 42.1631 30.1016C42.863 28.9134 43.7012 27.8717 44.6777 26.9766C45.6543 26.0651 46.818 25.3571 48.1689 24.8525C49.4873 24.348 50.944 24.0957 52.5391 24.0957C55.9408 24.0957 58.7402 25.235 60.9375 27.5137C62.0117 28.6367 62.8662 30.0609 63.501 31.7861C64.1357 33.4951 64.4694 35.4157 64.502 37.5479H45.6787V37.7432C45.6787 40.5752 46.2809 42.9596 47.4854 44.8965C48.0876 45.8568 48.8851 46.6136 49.8779 47.167C50.887 47.7204 52.0426 47.9971 53.3447 47.9971C55.0374 47.9971 56.6243 47.4681 58.1055 46.4102C59.6029 45.3522 60.612 43.863 61.1328 41.9424L63.9893 42.8457C63.3545 45.5312 62.0605 47.6715 60.1074 49.2666C58.1543 50.8617 55.7292 51.6592 52.832 51.6592ZM45.8496 34.9111H59.1309C59.0658 32.5511 58.4147 30.6468 57.1777 29.1982C55.957 27.7334 54.4596 27.001 52.6855 27.001C50.8952 27.001 49.3571 27.7334 48.0713 29.1982C46.7855 30.6468 46.0449 32.5511 45.8496 34.9111ZM80.9814 51.9521C80.07 51.9521 79.3132 51.6592 78.7109 51.0732C78.125 50.5036 77.596 49.5921 77.124 48.3389L69.4824 27.5381H64.9902V24.8037H79.7363V27.5381H75.293L81.7383 47.1426L87.9883 27.5381H83.8379V24.8037H96.3379V27.5381H92.1387L84.9365 48.1924C84.4808 49.527 83.9437 50.4873 83.3252 51.0732C82.7067 51.6592 81.9255 51.9521 80.9814 51.9521ZM115.405 51.6592C112.882 51.6592 110.531 51.1383 108.35 50.0967C106.169 49.055 104.329 47.6553 102.832 45.8975C101.335 44.1396 100.163 42.0807 99.3164 39.7207C98.4701 37.3444 98.0469 34.8542 98.0469 32.25C98.0469 29.5645 98.4782 27.0661 99.3408 24.7549C100.203 22.4437 101.408 20.458 102.954 18.7979C104.5 17.154 106.388 15.86 108.618 14.916C110.864 13.972 113.306 13.5 115.942 13.5C118.172 13.5 120.312 13.972 122.363 14.916C124.414 15.8438 126.107 17.1865 127.441 18.9443C128.776 20.6859 129.443 22.639 129.443 24.8037C129.443 25.9105 129.004 26.9277 128.125 27.8555C127.262 28.7832 126.107 29.2471 124.658 29.2471C123.421 29.2471 122.42 28.889 121.655 28.1729C120.89 27.4404 120.508 26.4476 120.508 25.1943C120.508 24.348 120.736 23.64 121.191 23.0703C121.647 22.4844 122.209 22.0449 122.876 21.752C123.543 21.4427 124.202 21.2881 124.854 21.2881C124.056 20.0674 122.876 19.0339 121.313 18.1875C119.751 17.3411 117.944 16.918 115.894 16.918C113.68 16.918 111.711 17.5527 109.985 18.8223C108.276 20.0918 106.934 21.8822 105.957 24.1934C104.98 26.5046 104.492 29.2227 104.492 32.3477C104.492 34.138 104.777 35.904 105.347 37.6455C105.916 39.387 106.714 40.9658 107.739 42.3818C108.765 43.8141 110.075 44.9697 111.67 45.8486C113.281 46.7113 115.039 47.1426 116.943 47.1426C118.376 47.1426 119.718 46.874 120.972 46.3369C122.241 45.7998 123.307 45.0918 124.17 44.2129C125.895 42.4876 127.051 40.502 127.637 38.2559L130.908 39.8428C130.046 43.6025 128.296 46.516 125.659 48.583C123.022 50.6338 119.604 51.6592 115.405 51.6592ZM145.947 51.6592C143.343 51.6592 141.081 51.0651 139.16 49.877C137.256 48.6888 135.775 47.0612 134.717 44.9941C133.675 42.9108 133.154 40.5426 133.154 37.8896C133.154 35.2367 133.667 32.8766 134.692 30.8096C135.718 28.7262 137.183 27.0905 139.087 25.9023C141.007 24.6979 143.278 24.0957 145.898 24.0957C148.535 24.0957 150.798 24.6979 152.686 25.9023C154.59 27.0905 156.047 28.7262 157.056 30.8096C158.081 32.8766 158.594 35.2367 158.594 37.8896C158.594 40.5101 158.081 42.862 157.056 44.9453C156.047 47.0286 154.598 48.6725 152.71 49.877C150.822 51.0651 148.568 51.6592 145.947 51.6592ZM145.947 48.5586C148.128 48.5586 149.845 47.6146 151.099 45.7266C152.368 43.8223 153.003 41.3158 153.003 38.207C153.003 36.2865 152.783 34.4717 152.344 32.7627C151.904 31.0537 151.164 29.6702 150.122 28.6123C149.097 27.5381 147.689 27.001 145.898 27.001C144.076 27.001 142.643 27.5544 141.602 28.6611C140.56 29.7679 139.819 31.1758 139.38 32.8848C138.957 34.5938 138.745 36.3678 138.745 38.207C138.745 41.332 139.388 43.8385 140.674 45.7266C141.96 47.6146 143.717 48.5586 145.947 48.5586ZM161.597 51V48.2656H166.357V27.5381H161.597V24.8037L170.85 24.3887L171.46 29.7109C172.257 27.888 173.478 26.4964 175.122 25.5361C176.782 24.5758 178.459 24.0957 180.151 24.0957C182.186 24.0957 183.789 24.527 184.961 25.3896C186.149 26.236 186.995 27.3753 187.5 28.8076C188.005 30.2399 188.257 31.835 188.257 33.5928V48.2656H193.262V51H178.54V48.2656H183.008V33.6416C183.008 31.5257 182.593 29.9632 181.763 28.9541C180.933 27.945 179.793 27.4404 178.345 27.4404C176.652 27.4404 175.309 27.9287 174.316 28.9053C173.34 29.8656 172.64 31.0618 172.217 32.4941C171.81 33.9102 171.606 35.3099 171.606 36.6934V48.2656H176.05V51H161.597ZM194.8 51V48.2656H199.561V27.5381H194.8V24.8037L204.053 24.3887L204.663 29.7109C205.461 27.888 206.681 26.4964 208.325 25.5361C209.985 24.5758 211.662 24.0957 213.354 24.0957C215.389 24.0957 216.992 24.527 218.164 25.3896C219.352 26.236 220.199 27.3753 220.703 28.8076C221.208 30.2399 221.46 31.835 221.46 33.5928V48.2656H226.465V51H211.743V48.2656H216.211V33.6416C216.211 31.5257 215.796 29.9632 214.966 28.9541C214.136 27.945 212.996 27.4404 211.548 27.4404C209.855 27.4404 208.512 27.9287 207.52 28.9053C206.543 29.8656 205.843 31.0618 205.42 32.4941C205.013 33.9102 204.81 35.3099 204.81 36.6934V48.2656H209.253V51H194.8ZM240.137 51.6592C238.151 51.6592 236.336 51.2848 234.692 50.5361C233.065 49.7712 231.722 48.7539 230.664 47.4844C228.483 44.8477 227.393 41.7633 227.393 38.2314C227.393 36.7666 227.563 35.3424 227.905 33.959C228.247 32.5755 228.768 31.2897 229.468 30.1016C230.168 28.9134 231.006 27.8717 231.982 26.9766C232.959 26.0651 234.123 25.3571 235.474 24.8525C236.792 24.348 238.249 24.0957 239.844 24.0957C243.245 24.0957 246.045 25.235 248.242 27.5137C249.316 28.6367 250.171 30.0609 250.806 31.7861C251.44 33.4951 251.774 35.4157 251.807 37.5479H232.983V37.7432C232.983 40.5752 233.586 42.9596 234.79 44.8965C235.392 45.8568 236.19 46.6136 237.183 47.167C238.192 47.7204 239.347 47.9971 240.649 47.9971C242.342 47.9971 243.929 47.4681 245.41 46.4102C246.908 45.3522 247.917 43.863 248.438 41.9424L251.294 42.8457C250.659 45.5312 249.365 47.6715 247.412 49.2666C245.459 50.8617 243.034 51.6592 240.137 51.6592ZM233.154 34.9111H246.436C246.37 32.5511 245.719 30.6468 244.482 29.1982C243.262 27.7334 241.764 27.001 239.99 27.001C238.2 27.001 236.662 27.7334 235.376 29.1982C234.09 30.6468 233.35 32.5511 233.154 34.9111ZM266.064 51.6592C264.681 51.6592 263.387 51.3662 262.183 50.7803C260.978 50.1943 260.002 49.3236 259.253 48.168C258.521 46.9961 258.154 45.5394 258.154 43.7979V27.5381H253.174V26.3906C254.427 26.0163 255.566 25.349 256.592 24.3887C257.617 23.4121 258.431 22.3623 259.033 21.2393C259.538 20.3278 259.904 19.6117 260.132 19.0908C260.36 18.5537 260.588 18.0166 260.815 17.4795C261.043 16.9424 261.393 16.2181 261.865 15.3066C262.207 14.6068 262.508 14.2568 262.769 14.2568C263.192 14.2568 263.403 14.5417 263.403 15.1113V24.8037H273.022V27.5869H263.403V43.9443C263.403 45.3766 263.729 46.4508 264.38 47.167C265.031 47.8831 265.894 48.2412 266.968 48.2412C268.27 48.2412 269.255 47.818 269.922 46.9717C270.589 46.109 270.923 44.6035 270.923 42.4551V38.9395H273.853V41.9424C273.853 45.165 273.275 47.5902 272.119 49.2178C270.98 50.8454 268.962 51.6592 266.064 51.6592Z" fill="#DF57BC"/>
</svg>
