<svg width="182" height="39" viewBox="0 0 182 39" fill="none" xmlns="http://www.w3.org/2000/svg">
<path d="M0.483398 31V28.9053H4.04297V11.0488H0.483398V8.9541H7.10449C8.68652 8.9541 10.1514 9.05176 11.499 9.24707C12.8564 9.44238 14.1797 9.79883 15.4688 10.3164C16.7578 10.8242 17.8516 11.4834 18.75 12.2939C19.6582 13.0947 20.3857 14.1348 20.9326 15.4141C21.4795 16.7129 21.7529 18.1875 21.7529 19.8379C21.7529 21.4004 21.5283 22.8066 21.0791 24.0566C20.6299 25.2969 20 26.3467 19.1895 27.2061C18.3691 28.0654 17.3682 28.7832 16.1865 29.3594C15.0146 29.9258 13.7207 30.3408 12.3047 30.6045C10.8887 30.8682 9.33594 31 7.64648 31H0.483398ZM7.5 28.9053C8.73047 28.9053 9.84375 28.8174 10.8398 28.6416C11.8457 28.4658 12.8027 28.168 13.7109 27.748C14.6191 27.3184 15.3809 26.7666 15.9961 26.0928C16.6113 25.4189 17.0996 24.5547 17.4609 23.5C17.8223 22.4551 18.0029 21.2344 18.0029 19.8379C18.0029 18.8027 17.9004 17.8604 17.6953 17.0107C17.5 16.1611 17.2314 15.4385 16.8896 14.8428C16.5381 14.2373 16.0986 13.71 15.5713 13.2607C15.0537 12.8115 14.5068 12.4502 13.9307 12.1768C13.3447 11.9033 12.6855 11.6836 11.9531 11.5176C11.2207 11.3516 10.5029 11.2344 9.7998 11.166C9.09668 11.1074 8.33008 11.0781 7.5 11.0781V28.9053ZM31.6992 31.3955C30.5078 31.3955 29.4189 31.1709 28.4326 30.7217C27.4561 30.2627 26.6504 29.6523 26.0156 28.8906C24.707 27.3086 24.0527 25.458 24.0527 23.3389C24.0527 22.46 24.1553 21.6055 24.3604 20.7754C24.5654 19.9453 24.8779 19.1738 25.2979 18.4609C25.7178 17.748 26.2207 17.123 26.8066 16.5859C27.3926 16.0391 28.0908 15.6143 28.9014 15.3115C29.6924 15.0088 30.5664 14.8574 31.5234 14.8574C33.5645 14.8574 35.2441 15.541 36.5625 16.9082C37.207 17.582 37.7197 18.4365 38.1006 19.4717C38.4814 20.4971 38.6816 21.6494 38.7012 22.9287H27.4072V23.0459C27.4072 24.7451 27.7686 26.1758 28.4912 27.3379C28.8525 27.9141 29.3311 28.3682 29.9268 28.7002C30.5322 29.0322 31.2256 29.1982 32.0068 29.1982C33.0225 29.1982 33.9746 28.8809 34.8633 28.2461C35.7617 27.6113 36.3672 26.7178 36.6797 25.5654L38.3936 26.1074C38.0127 27.7188 37.2363 29.0029 36.0645 29.96C34.8926 30.917 33.4375 31.3955 31.6992 31.3955ZM27.5098 21.3467H35.4785C35.4395 19.9307 35.0488 18.7881 34.3066 17.9189C33.5742 17.04 32.6758 16.6006 31.6113 16.6006C30.5371 16.6006 29.6143 17.04 28.8428 17.9189C28.0713 18.7881 27.627 19.9307 27.5098 21.3467ZM48.5889 31.5713C48.042 31.5713 47.5879 31.3955 47.2266 31.0439C46.875 30.7021 46.5576 30.1553 46.2744 29.4033L41.6895 16.9229H38.9941V15.2822H47.8418V16.9229H45.1758L49.043 28.6855L52.793 16.9229H50.3027V15.2822H57.8027V16.9229H55.2832L50.9619 29.3154C50.6885 30.1162 50.3662 30.6924 49.9951 31.0439C49.624 31.3955 49.1553 31.5713 48.5889 31.5713ZM69.2432 31.3955C67.7295 31.3955 66.3184 31.083 65.0098 30.458C63.7012 29.833 62.5977 28.9932 61.6992 27.9385C60.8008 26.8838 60.0977 25.6484 59.5898 24.2324C59.082 22.8066 58.8281 21.3125 58.8281 19.75C58.8281 18.1387 59.0869 16.6396 59.6045 15.2529C60.1221 13.8662 60.8447 12.6748 61.7725 11.6787C62.7002 10.6924 63.833 9.91602 65.1709 9.34961C66.5186 8.7832 67.9834 8.5 69.5654 8.5C70.9033 8.5 72.1875 8.7832 73.418 9.34961C74.6484 9.90625 75.6641 10.7119 76.4648 11.7666C77.2656 12.8115 77.666 13.9834 77.666 15.2822C77.666 15.9463 77.4023 16.5566 76.875 17.1133C76.3574 17.6699 75.6641 17.9482 74.7949 17.9482C74.0527 17.9482 73.4521 17.7334 72.9932 17.3037C72.5342 16.8643 72.3047 16.2686 72.3047 15.5166C72.3047 15.0088 72.4414 14.584 72.7148 14.2422C72.9883 13.8906 73.3252 13.627 73.7256 13.4512C74.126 13.2656 74.5215 13.1729 74.9121 13.1729C74.4336 12.4404 73.7256 11.8203 72.7881 11.3125C71.8506 10.8047 70.7666 10.5508 69.5361 10.5508C68.208 10.5508 67.0264 10.9316 65.9912 11.6934C64.9658 12.4551 64.1602 13.5293 63.5742 14.916C62.9883 16.3027 62.6953 17.9336 62.6953 19.8086C62.6953 20.8828 62.8662 21.9424 63.208 22.9873C63.5498 24.0322 64.0283 24.9795 64.6436 25.8291C65.2588 26.6885 66.0449 27.3818 67.002 27.9092C67.9688 28.4268 69.0234 28.6855 70.166 28.6855C71.0254 28.6855 71.8311 28.5244 72.583 28.2021C73.3447 27.8799 73.9844 27.4551 74.502 26.9277C75.5371 25.8926 76.2305 24.7012 76.582 23.3535L78.5449 24.3057C78.0273 26.5615 76.9775 28.3096 75.3955 29.5498C73.8135 30.7803 71.7627 31.3955 69.2432 31.3955ZM87.5684 31.3955C86.0059 31.3955 84.6484 31.0391 83.4961 30.3262C82.3535 29.6133 81.4648 28.6367 80.8301 27.3965C80.2051 26.1465 79.8926 24.7256 79.8926 23.1338C79.8926 21.542 80.2002 20.126 80.8154 18.8857C81.4307 17.6357 82.3096 16.6543 83.4521 15.9414C84.6045 15.2188 85.9668 14.8574 87.5391 14.8574C89.1211 14.8574 90.4785 15.2188 91.6113 15.9414C92.7539 16.6543 93.6279 17.6357 94.2334 18.8857C94.8486 20.126 95.1562 21.542 95.1562 23.1338C95.1562 24.7061 94.8486 26.1172 94.2334 27.3672C93.6279 28.6172 92.7588 29.6035 91.626 30.3262C90.4932 31.0391 89.1406 31.3955 87.5684 31.3955ZM87.5684 29.5352C88.877 29.5352 89.9072 28.9688 90.6592 27.8359C91.4209 26.6934 91.8018 25.1895 91.8018 23.3242C91.8018 22.1719 91.6699 21.083 91.4062 20.0576C91.1426 19.0322 90.6982 18.2021 90.0732 17.5674C89.458 16.9229 88.6133 16.6006 87.5391 16.6006C86.4453 16.6006 85.5859 16.9326 84.9609 17.5967C84.3359 18.2607 83.8916 19.1055 83.6279 20.1309C83.374 21.1562 83.2471 22.2207 83.2471 23.3242C83.2471 25.1992 83.6328 26.7031 84.4043 27.8359C85.1758 28.9688 86.2305 29.5352 87.5684 29.5352ZM96.958 31V29.3594H99.8145V16.9229H96.958V15.2822L102.51 15.0332L102.876 18.2266C103.354 17.1328 104.087 16.2979 105.073 15.7217C106.069 15.1455 107.075 14.8574 108.091 14.8574C109.312 14.8574 110.273 15.1162 110.977 15.6338C111.689 16.1416 112.197 16.8252 112.5 17.6846C112.803 18.5439 112.954 19.501 112.954 20.5557V29.3594H115.957V31H107.124V29.3594H109.805V20.585C109.805 19.3154 109.556 18.3779 109.058 17.7725C108.56 17.167 107.876 16.8643 107.007 16.8643C105.991 16.8643 105.186 17.1572 104.59 17.7432C104.004 18.3193 103.584 19.0371 103.33 19.8965C103.086 20.7461 102.964 21.5859 102.964 22.416V29.3594H105.63V31H96.958ZM116.88 31V29.3594H119.736V16.9229H116.88V15.2822L122.432 15.0332L122.798 18.2266C123.276 17.1328 124.009 16.2979 124.995 15.7217C125.991 15.1455 126.997 14.8574 128.013 14.8574C129.233 14.8574 130.195 15.1162 130.898 15.6338C131.611 16.1416 132.119 16.8252 132.422 17.6846C132.725 18.5439 132.876 19.501 132.876 20.5557V29.3594H135.879V31H127.046V29.3594H129.727V20.585C129.727 19.3154 129.478 18.3779 128.979 17.7725C128.481 17.167 127.798 16.8643 126.929 16.8643C125.913 16.8643 125.107 17.1572 124.512 17.7432C123.926 18.3193 123.506 19.0371 123.252 19.8965C123.008 20.7461 122.886 21.5859 122.886 22.416V29.3594H125.552V31H116.88ZM144.082 31.3955C142.891 31.3955 141.802 31.1709 140.815 30.7217C139.839 30.2627 139.033 29.6523 138.398 28.8906C137.09 27.3086 136.436 25.458 136.436 23.3389C136.436 22.46 136.538 21.6055 136.743 20.7754C136.948 19.9453 137.261 19.1738 137.681 18.4609C138.101 17.748 138.604 17.123 139.189 16.5859C139.775 16.0391 140.474 15.6143 141.284 15.3115C142.075 15.0088 142.949 14.8574 143.906 14.8574C145.947 14.8574 147.627 15.541 148.945 16.9082C149.59 17.582 150.103 18.4365 150.483 19.4717C150.864 20.4971 151.064 21.6494 151.084 22.9287H139.79V23.0459C139.79 24.7451 140.151 26.1758 140.874 27.3379C141.235 27.9141 141.714 28.3682 142.31 28.7002C142.915 29.0322 143.608 29.1982 144.39 29.1982C145.405 29.1982 146.357 28.8809 147.246 28.2461C148.145 27.6113 148.75 26.7178 149.062 25.5654L150.776 26.1074C150.396 27.7188 149.619 29.0029 148.447 29.96C147.275 30.917 145.82 31.3955 144.082 31.3955ZM139.893 21.3467H147.861C147.822 19.9307 147.432 18.7881 146.689 17.9189C145.957 17.04 145.059 16.6006 143.994 16.6006C142.92 16.6006 141.997 17.04 141.226 17.9189C140.454 18.7881 140.01 19.9307 139.893 21.3467ZM160.869 31.3955C159.355 31.3955 158.027 31.0488 156.885 30.3555C155.752 29.6621 154.868 28.7148 154.233 27.5137C153.599 26.3125 153.281 24.9551 153.281 23.4414C153.281 21.8887 153.589 20.4629 154.204 19.1641C154.819 17.8652 155.718 16.8252 156.899 16.0439C158.091 15.2529 159.531 14.8574 161.221 14.8574C161.924 14.8574 162.637 14.9648 163.359 15.1797C164.092 15.3848 164.766 15.6973 165.381 16.1172C165.996 16.5371 166.489 17.0693 166.86 17.7139C167.241 18.3584 167.432 19.1152 167.432 19.9844C167.432 20.5703 167.227 21.1123 166.816 21.6104C166.416 22.1084 165.854 22.3574 165.132 22.3574C164.497 22.3574 163.96 22.1719 163.521 21.8008C163.091 21.4199 162.876 20.917 162.876 20.292C162.876 19.6572 163.101 19.1641 163.55 18.8125C163.999 18.4609 164.526 18.2852 165.132 18.2852C164.81 17.7676 164.351 17.3428 163.755 17.0107C163.169 16.6787 162.495 16.5127 161.733 16.5127C160.591 16.5127 159.639 16.8252 158.877 17.4502C158.125 18.0654 157.559 18.8662 157.178 19.8525C156.797 20.8291 156.606 21.8643 156.606 22.958C156.606 24.8428 157.041 26.3271 157.91 27.4111C158.779 28.4854 159.985 29.0225 161.528 29.0225C162.329 29.0225 163.052 28.8223 163.696 28.4219C164.341 28.0215 164.873 27.5527 165.293 27.0156C165.713 26.4688 165.986 25.9854 166.113 25.5654L167.769 26.1074C167.397 27.709 166.611 28.9932 165.41 29.96C164.209 30.917 162.695 31.3955 160.869 31.3955ZM176.016 31.3955C175.186 31.3955 174.409 31.2197 173.687 30.8682C172.964 30.5166 172.378 29.9941 171.929 29.3008C171.489 28.5977 171.27 27.7236 171.27 26.6787V16.9229H168.281V16.2344C169.033 16.0098 169.717 15.6094 170.332 15.0332C170.947 14.4473 171.436 13.8174 171.797 13.1436C172.1 12.5967 172.319 12.167 172.456 11.8545C172.593 11.5322 172.729 11.21 172.866 10.8877C173.003 10.5654 173.213 10.1309 173.496 9.58398C173.701 9.16406 173.882 8.9541 174.038 8.9541C174.292 8.9541 174.419 9.125 174.419 9.4668V15.2822H180.19V16.9521H174.419V26.7666C174.419 27.626 174.614 28.2705 175.005 28.7002C175.396 29.1299 175.913 29.3447 176.558 29.3447C177.339 29.3447 177.93 29.0908 178.33 28.583C178.73 28.0654 178.931 27.1621 178.931 25.873V23.7637H180.688V25.5654C180.688 27.499 180.342 28.9541 179.648 29.9307C178.965 30.9072 177.754 31.3955 176.016 31.3955Z" fill="#DF57BC"/>
</svg>
