<svg width="97" height="32" viewBox="0 0 97 32" fill="none" xmlns="http://www.w3.org/2000/svg">
<path d="M0.402832 25V23.2544H3.36914V8.37402H0.402832V6.62842H5.92041C7.23877 6.62842 8.45947 6.7098 9.58252 6.87256C10.7137 7.03532 11.8164 7.33236 12.8906 7.76367C13.9648 8.18685 14.8763 8.73617 15.625 9.41162C16.3818 10.0789 16.9881 10.9456 17.4438 12.0117C17.8996 13.0941 18.1274 14.3229 18.1274 15.6982C18.1274 17.0003 17.9403 18.1722 17.5659 19.2139C17.1916 20.2474 16.6667 21.1222 15.9912 21.8384C15.3076 22.5545 14.4735 23.1527 13.4888 23.6328C12.5122 24.1048 11.4339 24.4507 10.2539 24.6704C9.07389 24.8901 7.77995 25 6.37207 25H0.402832ZM6.25 23.2544C7.27539 23.2544 8.20312 23.1812 9.0332 23.0347C9.87142 22.8882 10.6689 22.64 11.4258 22.29C12.1826 21.932 12.8174 21.4722 13.3301 20.9106C13.8428 20.3491 14.2497 19.6289 14.5508 18.75C14.8519 17.8792 15.0024 16.862 15.0024 15.6982C15.0024 14.8356 14.917 14.0503 14.7461 13.3423C14.5833 12.6343 14.3595 12.0321 14.0747 11.5356C13.7817 11.0311 13.4155 10.5916 12.9761 10.2173C12.5448 9.84294 12.089 9.54183 11.6089 9.31396C11.1206 9.0861 10.5713 8.90299 9.96094 8.76465C9.35059 8.6263 8.75244 8.52865 8.1665 8.47168C7.58057 8.42285 6.94173 8.39844 6.25 8.39844V23.2544ZM26.416 25.3296C25.4232 25.3296 24.5158 25.1424 23.6938 24.7681C22.88 24.3856 22.2087 23.877 21.6797 23.2422C20.5892 21.9238 20.0439 20.3817 20.0439 18.6157C20.0439 17.8833 20.1294 17.1712 20.3003 16.4795C20.4712 15.7878 20.7316 15.1449 21.0815 14.5508C21.4315 13.9567 21.8506 13.4359 22.3389 12.9883C22.8271 12.5326 23.409 12.1785 24.0845 11.9263C24.7437 11.674 25.472 11.5479 26.2695 11.5479C27.9704 11.5479 29.3701 12.1175 30.4688 13.2568C31.0059 13.8184 31.4331 14.5304 31.7505 15.3931C32.0679 16.2476 32.2347 17.2078 32.251 18.2739H22.8394V18.3716C22.8394 19.7876 23.1405 20.9798 23.7427 21.9482C24.0438 22.4284 24.4425 22.8068 24.939 23.0835C25.4435 23.3602 26.0213 23.4985 26.6724 23.4985C27.5187 23.4985 28.3122 23.234 29.0527 22.7051C29.8014 22.1761 30.306 21.4315 30.5664 20.4712L31.9946 20.9229C31.6772 22.2656 31.0303 23.3358 30.0537 24.1333C29.0771 24.9308 27.8646 25.3296 26.416 25.3296ZM22.9248 16.9556H29.5654C29.5329 15.7756 29.2074 14.8234 28.5889 14.0991C27.9785 13.3667 27.2298 13.0005 26.3428 13.0005C25.4476 13.0005 24.6785 13.3667 24.0356 14.0991C23.3927 14.8234 23.0225 15.7756 22.9248 16.9556ZM40.4907 25.4761C40.035 25.4761 39.6566 25.3296 39.3555 25.0366C39.0625 24.7518 38.798 24.2961 38.562 23.6694L34.7412 13.269H32.4951V11.9019H39.8682V13.269H37.6465L40.8691 23.0713L43.9941 13.269H41.9189V11.9019H48.1689V13.269H46.0693L42.4683 23.5962C42.2404 24.2635 41.9718 24.7437 41.6626 25.0366C41.3534 25.3296 40.9627 25.4761 40.4907 25.4761ZM57.7026 25.3296C56.4412 25.3296 55.2653 25.0692 54.1748 24.5483C53.0843 24.0275 52.1647 23.3276 51.416 22.4487C50.6673 21.5698 50.0814 20.5404 49.6582 19.3604C49.235 18.1722 49.0234 16.9271 49.0234 15.625C49.0234 14.2822 49.2391 13.033 49.6704 11.8774C50.1017 10.7218 50.7039 9.729 51.4771 8.89893C52.2502 8.07699 53.1942 7.43001 54.3091 6.95801C55.4321 6.486 56.6528 6.25 57.9712 6.25C59.0861 6.25 60.1562 6.486 61.1816 6.95801C62.207 7.42188 63.0534 8.09326 63.7207 8.97217C64.388 9.84294 64.7217 10.8195 64.7217 11.9019C64.7217 12.4552 64.502 12.9639 64.0625 13.4277C63.6312 13.8916 63.0534 14.1235 62.3291 14.1235C61.7106 14.1235 61.2101 13.9445 60.8276 13.5864C60.4451 13.2202 60.2539 12.7238 60.2539 12.0972C60.2539 11.674 60.3678 11.32 60.5957 11.0352C60.8236 10.7422 61.1043 10.5225 61.438 10.376C61.7716 10.2214 62.1012 10.144 62.4268 10.144C62.028 9.53369 61.438 9.01693 60.6567 8.59375C59.8755 8.17057 58.9722 7.95898 57.9468 7.95898C56.84 7.95898 55.8553 8.27637 54.9927 8.91113C54.1382 9.5459 53.4668 10.4411 52.9785 11.5967C52.4902 12.7523 52.2461 14.1113 52.2461 15.6738C52.2461 16.569 52.3885 17.452 52.6733 18.3228C52.9582 19.1935 53.3569 19.9829 53.8696 20.6909C54.3823 21.4071 55.0374 21.9849 55.835 22.4243C56.6406 22.8556 57.5195 23.0713 58.4717 23.0713C59.1878 23.0713 59.8592 22.937 60.4858 22.6685C61.1206 22.3999 61.6536 22.0459 62.085 21.6064C62.9476 20.7438 63.5254 19.751 63.8184 18.6279L65.4541 19.4214C65.0228 21.3013 64.1479 22.758 62.8296 23.7915C61.5112 24.8169 59.8022 25.3296 57.7026 25.3296ZM72.9736 25.3296C71.6715 25.3296 70.5404 25.0326 69.5801 24.4385C68.6279 23.8444 67.8874 23.0306 67.3584 21.9971C66.8376 20.9554 66.5771 19.7713 66.5771 18.4448C66.5771 17.1183 66.8335 15.9383 67.3462 14.9048C67.8589 13.8631 68.5913 13.0452 69.5435 12.4512C70.5037 11.849 71.639 11.5479 72.9492 11.5479C74.2676 11.5479 75.3988 11.849 76.3428 12.4512C77.2949 13.0452 78.0233 13.8631 78.5278 14.9048C79.0405 15.9383 79.2969 17.1183 79.2969 18.4448C79.2969 19.755 79.0405 20.931 78.5278 21.9727C78.0233 23.0143 77.299 23.8363 76.355 24.4385C75.411 25.0326 74.2839 25.3296 72.9736 25.3296ZM72.9736 23.7793C74.0641 23.7793 74.9227 23.3073 75.5493 22.3633C76.1841 21.4111 76.5015 20.1579 76.5015 18.6035C76.5015 17.6432 76.3916 16.7358 76.1719 15.8813C75.9521 15.0269 75.5819 14.3351 75.061 13.8062C74.5483 13.269 73.8444 13.0005 72.9492 13.0005C72.0378 13.0005 71.3216 13.2772 70.8008 13.8306C70.2799 14.384 69.9097 15.0879 69.6899 15.9424C69.4784 16.7969 69.3726 17.6839 69.3726 18.6035C69.3726 20.166 69.694 21.4193 70.3369 22.3633C70.9798 23.3073 71.8587 23.7793 72.9736 23.7793ZM80.7983 25V23.6328H83.1787V13.269H80.7983V11.9019L85.4248 11.6943L85.73 14.3555C86.1287 13.444 86.7391 12.7482 87.561 12.2681C88.3911 11.7879 89.2293 11.5479 90.0757 11.5479C91.0929 11.5479 91.8945 11.7635 92.4805 12.1948C93.0745 12.618 93.4977 13.1877 93.75 13.9038C94.0023 14.62 94.1284 15.4175 94.1284 16.2964V23.6328H96.6309V25H89.27V23.6328H91.5039V16.3208C91.5039 15.2629 91.2964 14.4816 90.8813 13.9771C90.4663 13.4725 89.8966 13.2202 89.1724 13.2202C88.326 13.2202 87.6546 13.4644 87.1582 13.9526C86.6699 14.4328 86.32 15.0309 86.1084 15.7471C85.9049 16.4551 85.8032 17.1549 85.8032 17.8467V23.6328H88.0249V25H80.7983Z" fill="#DF57BC"/>
</svg>
